<svg width="295" height="295" viewBox="0 0 295 295" fill="none" xmlns="http://www.w3.org/2000/svg">
<circle cx="147.5" cy="147.5" r="143" fill="#FFFDFD" stroke="#D9712E" stroke-width="9"/>
<path d="M75.0836 94.5483L74.658 51.4004L89.1261 49.8583L97.7552 92.1318L89.6511 92.9956L88.3178 86.1484L83.1471 86.6995L83.3865 93.6633L75.0836 94.5483ZM83.0674 79.8192L86.9455 79.4058L82.7403 57.8803L82.3426 57.9227L83.0674 79.8192ZM111.836 91.0333C108.72 91.3654 106.113 90.6543 104.015 88.9001C101.951 87.1424 100.737 84.5565 100.373 81.1425L98.2742 61.454C97.822 57.2114 98.3263 53.9227 99.787 51.5881C101.248 49.2535 103.785 47.8936 107.398 47.5085C110.546 47.1729 113.174 47.7644 115.28 49.283C117.386 50.8017 118.612 53.1852 118.959 56.4334L119.743 63.7918L111.241 64.698L110.568 58.3837C110.437 57.1573 110.198 56.328 109.85 55.8958C109.503 55.4635 108.964 55.2863 108.235 55.364C107.472 55.4453 106.97 55.7669 106.729 56.3291C106.52 56.8877 106.47 57.6807 106.58 58.7082L108.864 80.1369C108.984 81.2638 109.238 82.0748 109.626 82.5698C110.011 83.0316 110.534 83.2272 111.197 83.1566C112.523 83.0153 113.071 81.8674 112.841 79.7129L112.02 72.0066L120.621 71.0898L121.48 79.1441C122.243 86.3036 119.028 90.2666 111.836 91.0333ZM136.875 88.3643C133.76 88.6964 131.153 87.9854 129.055 86.2312C126.991 84.4734 125.776 81.8875 125.413 78.4735L123.314 58.7851C122.862 54.5424 123.366 51.2538 124.827 48.9191C126.288 46.5845 128.824 45.2246 132.437 44.8396C135.586 44.5039 138.214 45.0954 140.32 46.6141C142.426 48.1328 143.652 50.5162 143.998 53.7645L144.783 61.1228L136.281 62.029L135.608 55.7148C135.477 54.4884 135.238 53.6591 134.89 53.2268C134.542 52.7946 134.004 52.6173 133.275 52.6951C132.512 52.7763 132.01 53.098 131.768 53.6601C131.56 54.2187 131.51 55.0118 131.62 56.0393L133.904 77.4679C134.024 78.5949 134.278 79.4058 134.666 79.9008C135.05 80.3627 135.574 80.5583 136.237 80.4876C137.563 80.3463 138.111 79.1984 137.881 77.044L137.06 69.3376L145.661 68.4208L146.52 76.4752C147.283 83.6346 144.068 87.5977 136.875 88.3643ZM151.929 86.3575L147.377 43.6494L164.48 41.8264L165.36 50.0797L156.957 50.9753L157.842 59.2783L165.897 58.4198L166.755 66.4741L158.701 67.3326L159.745 77.1272L168.694 76.1733L169.579 84.4762L151.929 86.3575ZM161.906 40.7934L150.128 39.7358L149.227 31.2837L161.328 35.3741L161.906 40.7934ZM184.095 83.3313C180.217 83.7446 177.314 83.0819 175.385 81.3432C173.457 79.6045 172.265 76.5972 171.809 72.3214L171.364 68.1451L179.766 67.2495L180.333 72.5694C180.559 74.6907 181.352 75.6789 182.711 75.5341C183.473 75.4528 183.981 75.1808 184.233 74.7181C184.482 74.2223 184.55 73.4441 184.437 72.3834C184.288 70.9913 184.001 69.8654 183.574 69.0058C183.143 68.1131 182.631 67.3967 182.037 66.8566C181.473 66.2798 180.459 65.4157 178.995 64.2644L174.924 60.9774C171.777 58.497 170.023 55.5663 169.663 52.1855C169.274 48.5395 169.808 45.6835 171.264 43.6176C172.749 41.5149 175.099 40.2923 178.315 39.9496C182.159 39.5398 185.037 40.2723 186.946 42.1471C188.852 43.9888 190.036 47.0807 190.499 51.4228L181.799 52.3502L181.436 49.4221C181.376 48.8586 181.163 48.4288 180.796 48.1327C180.462 47.833 180.014 47.7132 179.45 47.7733C178.787 47.844 178.31 48.0792 178.017 48.4792C177.724 48.8791 177.612 49.394 177.679 50.0237C177.827 51.4158 178.776 52.7729 180.526 54.0948L186.007 58.3379C187.287 59.3412 188.363 60.3159 189.235 61.2622C190.103 62.1753 190.844 63.3032 191.456 64.6459C192.065 65.9554 192.47 67.5548 192.671 69.4441C193.12 73.6535 192.682 76.9351 191.358 79.2888C190.062 81.6058 187.642 82.9533 184.095 83.3313ZM89.7675 147.289L85.2153 104.581L93.7669 103.67L97.5453 139.119L106.345 138.181L107.119 145.44L89.7675 147.289ZM110.622 145.066L106.07 102.358L114.323 101.478L118.876 144.187L110.622 145.066ZM119.224 100.956L130.808 99.7213C133.924 99.3893 136.259 99.9114 137.814 101.288C139.401 102.66 140.379 105.07 140.746 108.518L140.948 110.407C141.382 114.484 140.184 117.075 137.352 118.182C139.191 118.455 140.565 119.398 141.475 121.011C142.384 122.623 142.987 124.822 143.284 127.606C143.768 132.147 143.456 135.667 142.348 138.165C141.236 140.63 138.907 142.051 135.36 142.429L123.776 143.664L119.224 100.956ZM131.028 115.939C131.758 115.862 132.227 115.543 132.435 114.985C132.64 114.393 132.69 113.6 132.584 112.606L132.128 108.33C131.98 106.938 131.292 106.307 130.066 106.438L128.276 106.629L129.288 116.125L131.028 115.939ZM132.174 135.176C134.394 134.94 135.392 133.761 135.166 131.639L134.599 126.319C134.461 125.027 134.158 124.07 133.689 123.45C133.254 122.826 132.556 122.565 131.595 122.667L130.004 122.837L131.323 135.217L132.174 135.176ZM144.506 98.2613L157.632 96.8622C159.72 96.6397 161.379 96.9489 162.608 97.79C163.867 98.5945 164.788 99.8373 165.369 101.518C165.947 103.166 166.377 105.316 166.66 107.968C166.918 110.388 166.804 112.31 166.319 113.737C165.835 115.163 164.841 116.224 163.34 116.92C164.661 117.048 165.658 117.595 166.331 118.562C167.037 119.526 167.484 120.887 167.671 122.643L169.294 138.813L160.941 139.703L159.161 122.997C159.034 121.804 158.72 121.067 158.221 120.785C157.721 120.503 156.859 120.427 155.632 120.558L157.71 140.047L149.059 140.969L144.506 98.2613ZM156.931 112.927C158.124 112.8 158.583 111.444 158.307 108.858C158.187 107.731 158.047 106.891 157.888 106.339C157.728 105.786 157.505 105.424 157.219 105.253C156.929 105.05 156.536 104.974 156.038 105.027L154.05 105.239L154.892 113.144L156.931 112.927ZM174.244 138.285L169.692 95.5768L186.795 93.7538L187.675 102.007L179.272 102.903L180.157 111.206L188.212 110.347L189.07 118.402L181.016 119.26L182.06 129.055L191.009 128.101L191.894 136.404L174.244 138.285Z" fill="#1C1C1E"/>
<path d="M90.383 201.659C87.4662 201.97 85.1095 201.718 83.3131 200.904C81.5167 200.09 80.1645 198.726 79.2565 196.811C78.3484 194.897 77.7248 192.348 77.3857 189.166L76.1562 177.632C75.6863 173.223 75.5823 169.731 75.8441 167.156C76.1356 164.543 77.0559 162.484 78.605 160.978C80.1505 159.439 82.6138 158.489 85.9946 158.129C87.8508 157.931 89.5913 158.064 91.2163 158.528C92.8413 158.992 94.1849 159.804 95.2472 160.964C96.3096 162.125 96.9361 163.6 97.1269 165.39L97.6197 170.014L89.3665 170.894L89.2711 169.999C89.1156 168.54 88.8629 167.427 88.513 166.66C88.1962 165.889 87.5737 165.554 86.6457 165.652C85.7176 165.751 85.0812 166.071 84.7364 166.61C84.4248 167.146 84.3238 167.928 84.4333 168.956L85.3501 177.557C85.663 176.719 86.2109 176.04 86.9936 175.521C87.7728 174.969 88.7258 174.633 89.8528 174.512C92.173 174.265 94.0123 174.538 95.3707 175.332C96.7623 176.123 97.8039 177.403 98.4954 179.173C99.1869 180.943 99.6898 183.303 100.004 186.253C100.488 190.794 100.001 194.399 98.5424 197.068C97.0802 199.705 94.3604 201.235 90.383 201.659ZM89.2474 193.835C90.1423 193.74 90.6687 193.332 90.8265 192.611C91.0139 191.854 91.0211 190.663 90.848 189.039L90.4823 185.608C90.235 183.288 89.4485 182.199 88.1226 182.34C86.6311 182.499 85.9931 183.589 86.2086 185.611L86.7703 190.881C86.9964 193.003 87.8221 193.987 89.2474 193.835ZM105.462 199.65L100.91 156.942L109.412 156.035L111.039 171.299L115.066 170.87L113.439 155.606L121.941 154.7L126.493 197.408L117.991 198.314L115.924 178.924L111.897 179.353L113.964 198.743L105.462 199.65ZM129.997 184.514L129.398 178.896L141.927 177.56L142.526 183.179L129.997 184.514ZM148.081 193.045C147.872 191.09 147.978 189.252 148.398 187.531C148.851 185.806 149.454 184.233 150.208 182.812C150.962 181.391 151.972 179.708 153.24 177.762C154.534 175.747 155.542 174.048 156.266 172.663C157.024 171.275 157.612 169.72 158.032 168C158.482 166.242 158.602 164.385 158.394 162.43C158.27 161.27 158.009 160.393 157.61 159.798C157.208 159.17 156.576 158.903 155.715 158.994C154.289 159.146 153.713 160.498 153.985 163.051L154.541 168.271L145.542 169.23L145.162 166.606C144.816 163.358 144.863 160.654 145.303 158.495C145.743 156.336 146.734 154.622 148.275 153.351C149.815 152.081 152.044 151.29 154.961 150.979C158.541 150.598 161.416 151.314 163.587 153.127C165.755 154.907 167.034 157.637 167.427 161.316C167.677 163.67 167.574 165.843 167.116 167.836C166.687 169.792 166.069 171.534 165.259 173.062C164.483 174.586 163.419 176.393 162.066 178.481C161.084 179.96 160.268 181.271 159.619 182.413C159.002 183.551 158.456 184.715 157.98 185.906L169.614 184.666L170.472 192.72L148.298 195.084L148.081 193.045ZM184.652 191.712C180.907 192.111 178.068 191.425 176.136 189.653C174.2 187.848 173.017 184.923 172.586 180.88L172.109 176.405L180.86 175.472L181.337 179.947C181.474 181.24 181.748 182.233 182.157 182.927C182.563 183.587 183.263 183.865 184.257 183.759C184.953 183.685 185.424 183.383 185.669 182.854C185.948 182.322 186.085 181.72 186.08 181.05C186.072 180.347 186 179.349 185.862 178.057L185.75 177.013C185.358 173.333 183.952 171.623 181.533 171.881C181.102 171.927 180.822 171.973 180.693 172.02L179.877 164.364C181.401 164.201 182.51 163.748 183.201 163.004C183.89 162.226 184.154 161.092 183.995 159.601C183.737 157.181 182.912 156.045 181.52 156.194C180.658 156.285 180.118 156.561 179.899 157.02C179.712 157.476 179.605 158.04 179.576 158.714C179.581 159.384 179.582 159.87 179.581 160.172L179.719 161.464L170.869 162.408L170.66 160.921C170.276 157.007 170.899 154.041 172.527 152.023C174.153 149.973 176.854 148.746 180.633 148.343C187.892 147.57 191.926 150.978 192.735 158.568C192.972 160.789 192.862 162.594 192.407 163.984C191.948 165.34 191.018 166.361 189.616 167.047C190.873 167.516 191.831 168.168 192.49 169.003C193.178 169.801 193.672 170.821 193.972 172.063C194.305 173.302 194.585 174.981 194.811 177.103C195.281 181.511 194.708 184.941 193.092 187.393C191.509 189.841 188.696 191.281 184.652 191.712ZM200.814 189.486L196.262 146.778L204.764 145.872L206.391 161.135L210.418 160.706L208.791 145.443L217.293 144.536L221.845 187.245L213.343 188.151L211.277 168.761L207.249 169.19L209.316 188.58L200.814 189.486Z" fill="#D9712E"/>
<path d="M109.835 260.275C109.646 255.669 109.92 251.315 110.656 247.214C111.425 243.109 112.575 238.327 114.105 232.868C114.591 231.14 114.939 229.846 115.149 228.985L116.363 224.33L104.281 225.618L103.438 217.713L125.016 215.413L125.694 221.777C125.695 223.352 125.506 224.881 125.127 226.363C124.779 227.808 124.248 229.591 123.535 231.712C122.969 233.314 122.541 234.65 122.253 235.72C121.22 239.551 120.455 243.387 119.96 247.228C119.46 251.036 119.301 255.042 119.481 259.246L109.835 260.275ZM143.793 257.057C141.837 257.266 140.023 257.074 138.351 256.481C136.679 255.888 135.301 254.912 134.217 253.552C133.163 252.156 132.525 250.414 132.303 248.326L131.163 237.637L139.566 236.741L140.652 246.933C140.733 247.696 140.948 248.293 141.296 248.725C141.673 249.121 142.193 249.283 142.856 249.212C143.486 249.145 143.929 248.897 144.185 248.467C144.47 248.001 144.572 247.387 144.491 246.625L140.988 213.761L149.589 212.844L153.002 244.863C153.239 247.083 153 249.087 152.285 250.872C151.6 252.622 150.511 254.045 149.019 255.143C147.557 256.204 145.815 256.842 143.793 257.057ZM157.712 255.171L163.083 211.205L171.932 210.261L166.512 254.233L157.712 255.171ZM182.187 252.563C181.998 247.957 182.272 243.603 183.008 239.502C183.777 235.398 184.927 230.615 186.457 225.156C186.943 223.428 187.291 222.134 187.501 221.273L188.714 216.618L176.633 217.906L175.79 210.001L197.368 207.701L198.046 214.065C198.047 215.64 197.858 217.169 197.479 218.651C197.13 220.096 196.6 221.879 195.887 224C195.32 225.602 194.893 226.938 194.605 228.008C193.572 231.839 192.807 235.675 192.312 239.516C191.812 243.324 191.653 247.33 191.833 251.535L182.187 252.563Z" fill="#1C1C1E"/>
</svg>
