<svg width="48" height="48" viewBox="0 0 48 48" fill="none" xmlns="http://www.w3.org/2000/svg">
<path d="M35.998 14.501C37.3241 14.501 38.5959 13.9742 39.5336 13.0365C40.4713 12.0988 40.998 10.8271 40.998 9.50098C40.998 8.17489 40.4713 6.90312 39.5336 5.96544C38.5959 5.02776 37.3241 4.50098 35.998 4.50098C34.672 4.50098 33.4002 5.02776 32.4625 5.96544C31.5248 6.90312 30.998 8.17489 30.998 9.50098C30.998 10.8271 31.5248 12.0988 32.4625 13.0365C33.4002 13.9742 34.672 14.501 35.998 14.501Z" stroke="white" stroke-width="4"/>
<path d="M11.998 16.271L20.001 13.499L30.998 18.748L20.001 26.945L30.998 34.185L24.006 43.499M35.318 21.144L38 22.603L43.998 16.967M16.847 31.046L13.877 34.958L4.00195 40.498" stroke="white" stroke-width="4" stroke-linecap="round" stroke-linejoin="round"/>
</svg>
