<svg width="25" height="21" viewBox="0 0 25 21" fill="none" xmlns="http://www.w3.org/2000/svg">
<path d="M2.5 20.5C1.8125 20.5 1.22375 20.255 0.733752 19.765C0.243752 19.275 -0.000831211 18.6867 2.12224e-06 18V3C2.12224e-06 2.3125 0.245002 1.72375 0.735002 1.23375C1.225 0.743752 1.81333 0.499169 2.5 0.500002H22.5C23.1875 0.500002 23.7762 0.745002 24.2662 1.235C24.7562 1.725 25.0008 2.31334 25 3V18C25 18.6875 24.755 19.2762 24.265 19.7662C23.775 20.2562 23.1867 20.5008 22.5 20.5H2.5ZM22.5 5.5L13.1562 11.3438C13.0521 11.4063 12.9425 11.4533 12.8275 11.485C12.7125 11.5167 12.6033 11.5321 12.5 11.5312C12.3958 11.5312 12.2862 11.5158 12.1712 11.485C12.0562 11.4542 11.9471 11.4071 11.8437 11.3438L2.5 5.5V18H22.5V5.5ZM12.5 9.25L22.5 3H2.5L12.5 9.25ZM2.5 5.8125V3.96875V4V3.985V5.8125Z" fill="#FFFFFF"/>
</svg>
